<svg xmlns="http://www.w3.org/2000/svg" viewBox="0 0 338.59 343.24"><defs><style>.cls-1{opacity:0.05;}</style></defs><title>Asset 2</title><g id="Layer_2" data-name="Layer 2"><g id="Text"><g class="cls-1"><path d="M11.23,225.72a5.62,5.62,0,1,0-5.62,5.61A5.62,5.62,0,0,0,11.23,225.72Z"/><path d="M11.23,203.7a5.62,5.62,0,1,0-5.62,5.62A5.61,5.61,0,0,0,11.23,203.7Z"/><path d="M11.23,181.69a5.62,5.62,0,1,0-5.62,5.61A5.61,5.61,0,0,0,11.23,181.69Z"/><path d="M5.73,159.66a.11.11,0,0,0-.12-.11.12.12,0,0,0-.12.11.13.13,0,0,0,.12.14C5.69,159.8,5.73,159.74,5.73,159.66Z"/><path d="M11.17,137.66a5.56,5.56,0,1,0-5.56,5.55A5.55,5.55,0,0,0,11.17,137.66Z"/><path d="M9,115.64A3.36,3.36,0,1,0,5.61,119,3.35,3.35,0,0,0,9,115.64Z"/><path d="M6.46,93.63a.85.85,0,0,0-1.7,0,.85.85,0,1,0,1.7,0Z"/><path d="M33.19,291.77a5.56,5.56,0,1,0-5.55,5.55A5.55,5.55,0,0,0,33.19,291.77Z"/><path d="M29,269.75a1.35,1.35,0,1,0-1.34,1.34A1.35,1.35,0,0,0,29,269.75Z"/><path d="M30.74,247.73a3.11,3.11,0,1,0-3.1,3.11A3.1,3.1,0,0,0,30.74,247.73Z"/><path d="M33.25,225.72a5.62,5.62,0,1,0-5.61,5.61A5.62,5.62,0,0,0,33.25,225.72Z"/><path d="M28.31,203.7a.68.68,0,0,0-.67-.67.67.67,0,1,0,0,1.34A.68.68,0,0,0,28.31,203.7Z"/><path d="M28.91,181.69A1.28,1.28,0,1,0,27.64,183,1.28,1.28,0,0,0,28.91,181.69Z"/><path d="M27.82,159.66a.19.19,0,0,0-.18-.17.2.2,0,0,0-.2.17.2.2,0,0,0,.2.2A.2.2,0,0,0,27.82,159.66Z"/><path d="M29.28,137.66A1.65,1.65,0,0,0,27.64,136,1.67,1.67,0,0,0,26,137.66a1.65,1.65,0,0,0,1.66,1.64A1.63,1.63,0,0,0,29.28,137.66Z"/><path d="M32.2,115.64a4.58,4.58,0,1,0-4.56,4.58A4.56,4.56,0,0,0,32.2,115.64Z"/><path d="M28.61,93.63a1,1,0,1,0-2,0,1,1,0,0,0,2,0Z"/><path d="M27.93,71.61a.29.29,0,0,0-.29-.3.31.31,0,0,0-.32.3.32.32,0,0,0,.32.31A.31.31,0,0,0,27.93,71.61Z"/><path d="M50.49,335.8a.85.85,0,0,0-.85-.86.86.86,0,0,0-.85.86.86.86,0,0,0,.85.85A.84.84,0,0,0,50.49,335.8Z"/><path d="M53,291.77a3.36,3.36,0,1,0-3.36,3.35A3.36,3.36,0,0,0,53,291.77Z"/><path d="M54.11,269.75a4.46,4.46,0,1,0-4.47,4.45A4.46,4.46,0,0,0,54.11,269.75Z"/><path d="M53.06,247.73a3.42,3.42,0,1,0-3.42,3.42A3.41,3.41,0,0,0,53.06,247.73Z"/><path d="M57.15,225.72a7.51,7.51,0,1,0-7.51,7.51A7.51,7.51,0,0,0,57.15,225.72Z"/><path d="M58.12,203.7a8.48,8.48,0,1,0-8.48,8.49A8.47,8.47,0,0,0,58.12,203.7Z"/><ellipse cx="49.64" cy="181.69" rx="5.73" ry="5.74"/><path d="M55.38,159.66a5.74,5.74,0,1,0-5.74,5.75A5.73,5.73,0,0,0,55.38,159.66Z"/><path d="M51.3,137.66A1.67,1.67,0,0,0,49.64,136,1.65,1.65,0,0,0,48,137.66a1.63,1.63,0,0,0,1.64,1.64A1.65,1.65,0,0,0,51.3,137.66Z"/><circle cx="49.64" cy="115.64" r="1.46"/><path d="M57.09,93.63a7.45,7.45,0,1,0-7.45,7.45A7.44,7.44,0,0,0,57.09,93.63Z"/><path d="M50.63,71.61a1,1,0,0,0-1-1,1,1,0,0,0-1,1,1,1,0,0,0,1,1A1,1,0,0,0,50.63,71.61Z"/><path d="M72,335.8a.3.3,0,0,0-.29-.31.31.31,0,1,0,0,.61A.3.3,0,0,0,72,335.8Z"/><path d="M73.43,313.78a1.77,1.77,0,1,0-1.76,1.77A1.77,1.77,0,0,0,73.43,313.78Z"/><path d="M76,291.77a4.34,4.34,0,1,0-4.33,4.33A4.34,4.34,0,0,0,76,291.77Z"/><path d="M78.31,269.75a6.65,6.65,0,1,0-6.64,6.66A6.64,6.64,0,0,0,78.31,269.75Z"/><path d="M77.46,247.73a5.8,5.8,0,1,0-5.79,5.8A5.79,5.79,0,0,0,77.46,247.73Z"/><path d="M76.37,225.72a4.71,4.71,0,1,0-4.7,4.7A4.7,4.7,0,0,0,76.37,225.72Z"/><path d="M79.12,203.7a7.45,7.45,0,1,0-7.45,7.45A7.45,7.45,0,0,0,79.12,203.7Z"/><path d="M79,181.69A7.33,7.33,0,1,0,71.67,189,7.32,7.32,0,0,0,79,181.69Z"/><path d="M77.52,159.66a5.86,5.86,0,1,0-5.85,5.87A5.85,5.85,0,0,0,77.52,159.66Z"/><path d="M78.86,137.66a7.21,7.21,0,1,0-7.19,7.19A7.2,7.2,0,0,0,78.86,137.66Z"/><path d="M76.73,115.64a5.07,5.07,0,1,0-5.06,5.07A5.07,5.07,0,0,0,76.73,115.64Z"/><path d="M74.65,93.63a3,3,0,1,0-3,3A3,3,0,0,0,74.65,93.63Z"/><path d="M72.14,71.61a.49.49,0,0,0-.47-.5.51.51,0,0,0-.5.5.5.5,0,0,0,.5.49A.48.48,0,0,0,72.14,71.61Z"/><path d="M72.64,49.6a1,1,0,0,0-1-1,1,1,0,0,0-1,1,1,1,0,0,0,1,1A1,1,0,0,0,72.64,49.6Z"/><path d="M94.66,335.8a1,1,0,0,0-1-1,1,1,0,0,0,0,2A1,1,0,0,0,94.66,335.8Z"/><path d="M95.81,313.78a2.14,2.14,0,1,0-2.14,2.14A2.13,2.13,0,0,0,95.81,313.78Z"/><path d="M97.09,291.77a3.42,3.42,0,1,0-3.42,3.41A3.41,3.41,0,0,0,97.09,291.77Z"/><path d="M95.51,269.75a1.83,1.83,0,1,0-1.84,1.83A1.83,1.83,0,0,0,95.51,269.75Z"/><path d="M97.64,247.73a4,4,0,1,0-4,4A4,4,0,0,0,97.64,247.73Z"/><path d="M100.82,225.72a7.14,7.14,0,1,0-7.15,7.14A7.14,7.14,0,0,0,100.82,225.72Z"/><path d="M101.06,203.7a7.38,7.38,0,1,0-7.39,7.38A7.38,7.38,0,0,0,101.06,203.7Z"/><path d="M101.12,181.69a7.44,7.44,0,1,0-7.45,7.45A7.44,7.44,0,0,0,101.12,181.69Z"/><path d="M100.33,159.66a6.65,6.65,0,1,0-6.66,6.66A6.64,6.64,0,0,0,100.33,159.66Z"/><path d="M99.66,137.66a6,6,0,1,0-6,6A6,6,0,0,0,99.66,137.66Z"/><path d="M96,115.64A2.32,2.32,0,1,0,93.67,118,2.32,2.32,0,0,0,96,115.64Z"/><circle cx="93.67" cy="93.63" r="5.55"/><path d="M95.27,71.61a1.59,1.59,0,1,0-1.6,1.58A1.6,1.6,0,0,0,95.27,71.61Z"/><path d="M101.12,49.6A7.44,7.44,0,1,0,93.67,57,7.44,7.44,0,0,0,101.12,49.6Z"/><path d="M94.54,27.58a.86.86,0,1,0-.87.85A.86.86,0,0,0,94.54,27.58Z"/><path d="M118.44,335.8a2.75,2.75,0,1,0-2.74,2.75A2.74,2.74,0,0,0,118.44,335.8Z"/><path d="M118.07,313.78a2.38,2.38,0,1,0-2.37,2.39A2.38,2.38,0,0,0,118.07,313.78Z"/><path d="M121.25,291.77a5.56,5.56,0,1,0-5.55,5.55A5.55,5.55,0,0,0,121.25,291.77Z"/><path d="M118.13,269.75a2.44,2.44,0,1,0-2.43,2.45A2.43,2.43,0,0,0,118.13,269.75Z"/><path d="M119.05,247.73a3.36,3.36,0,1,0-3.35,3.36A3.35,3.35,0,0,0,119.05,247.73Z"/><path d="M120.2,225.72a4.52,4.52,0,1,0-4.5,4.51A4.5,4.5,0,0,0,120.2,225.72Z"/><circle cx="115.7" cy="203.7" r="6.29"/><path d="M121.61,181.69a5.92,5.92,0,1,0-5.91,5.92A5.91,5.91,0,0,0,121.61,181.69Z"/><path d="M120.58,159.66a4.89,4.89,0,1,0-4.88,4.89A4.89,4.89,0,0,0,120.58,159.66Z"/><path d="M120.58,137.66a4.89,4.89,0,1,0-4.88,4.88A4.88,4.88,0,0,0,120.58,137.66Z"/><circle cx="115.7" cy="115.64" r="2.87"/><path d="M120.08,93.63A4.39,4.39,0,1,0,115.7,98,4.39,4.39,0,0,0,120.08,93.63Z"/><path d="M119.11,71.61A3.42,3.42,0,1,0,115.7,75,3.42,3.42,0,0,0,119.11,71.61Z"/><path d="M120,49.6a4.33,4.33,0,1,0-4.33,4.33A4.34,4.34,0,0,0,120,49.6Z"/><circle cx="115.7" cy="27.58" r="3.36"/><path d="M144.36,335.8a6.65,6.65,0,1,0-6.66,6.65A6.64,6.64,0,0,0,144.36,335.8Z"/><path d="M144.3,313.78a6.59,6.59,0,1,0-6.6,6.6A6.59,6.59,0,0,0,144.3,313.78Z"/><path d="M142.11,291.77a4.4,4.4,0,1,0-4.41,4.39A4.4,4.4,0,0,0,142.11,291.77Z"/><path d="M140.39,269.75a2.68,2.68,0,1,0-2.69,2.68A2.68,2.68,0,0,0,140.39,269.75Z"/><path d="M140.94,247.73A3.23,3.23,0,1,0,137.7,251,3.24,3.24,0,0,0,140.94,247.73Z"/><circle cx="137.7" cy="225.72" r="3.42"/><path d="M142.66,203.7a5,5,0,1,0-5,4.94A5,5,0,0,0,142.66,203.7Z"/><path d="M142.78,181.69a5.07,5.07,0,1,0-5.08,5.07A5.07,5.07,0,0,0,142.78,181.69Z"/><path d="M144.42,159.66a6.71,6.71,0,1,0-6.72,6.72A6.7,6.7,0,0,0,144.42,159.66Z"/><path d="M143.81,137.66a6.1,6.1,0,1,0-6.11,6.1A6.1,6.1,0,0,0,143.81,137.66Z"/><path d="M143.2,115.64a5.5,5.5,0,1,0-5.5,5.49A5.49,5.49,0,0,0,143.2,115.64Z"/><path d="M142.78,93.63a5.07,5.07,0,1,0-5.08,5.06A5.07,5.07,0,0,0,142.78,93.63Z"/><path d="M138.75,71.61a1,1,0,1,0-1.05,1A1,1,0,0,0,138.75,71.61Z"/><path d="M139.36,49.6a1.67,1.67,0,0,0-1.66-1.66,1.65,1.65,0,0,0-1.64,1.66,1.63,1.63,0,0,0,1.64,1.64A1.65,1.65,0,0,0,139.36,49.6Z"/><path d="M141.06,27.58a3.35,3.35,0,1,0-3.36,3.36A3.35,3.35,0,0,0,141.06,27.58Z"/><path d="M143.26,5.57a5.56,5.56,0,1,0-5.56,5.55A5.56,5.56,0,0,0,143.26,5.57Z"/><path d="M167.17,335.8a7.45,7.45,0,1,0-7.45,7.44A7.44,7.44,0,0,0,167.17,335.8Z"/><path d="M162.71,313.78a3,3,0,1,0-3,3A3,3,0,0,0,162.71,313.78Z"/><path d="M163.38,291.77a3.66,3.66,0,1,0-3.66,3.66A3.66,3.66,0,0,0,163.38,291.77Z"/><path d="M167.35,269.75a7.63,7.63,0,1,0-7.63,7.63A7.63,7.63,0,0,0,167.35,269.75Z"/><path d="M165.4,247.73a5.68,5.68,0,1,0-5.68,5.68A5.67,5.67,0,0,0,165.4,247.73Z"/><path d="M165.83,225.72a6.11,6.11,0,1,0-6.11,6.1A6.09,6.09,0,0,0,165.83,225.72Z"/><path d="M166,203.7a6.23,6.23,0,1,0-6.23,6.23A6.22,6.22,0,0,0,166,203.7Z"/><ellipse cx="159.72" cy="181.69" rx="4.33" ry="4.34"/><path d="M164.79,159.66a5.07,5.07,0,1,0-5.07,5.08A5.07,5.07,0,0,0,164.79,159.66Z"/><path d="M165.65,137.66a5.93,5.93,0,1,0-5.93,5.91A5.94,5.94,0,0,0,165.65,137.66Z"/><path d="M165.22,115.64a5.5,5.5,0,1,0-5.5,5.49A5.5,5.5,0,0,0,165.22,115.64Z"/><path d="M165.77,93.63a6,6,0,1,0-6.05,6A6,6,0,0,0,165.77,93.63Z"/><path d="M166.56,71.61a6.84,6.84,0,1,0-6.84,6.83A6.84,6.84,0,0,0,166.56,71.61Z"/><path d="M160.34,49.6a.62.62,0,1,0-.62.61A.61.61,0,0,0,160.34,49.6Z"/><circle cx="159.72" cy="27.58" r="1.64"/><path d="M183.51,313.78a1.77,1.77,0,1,0-1.78,1.77A1.78,1.78,0,0,0,183.51,313.78Z"/><path d="M188.57,291.77a6.84,6.84,0,1,0-6.84,6.83A6.84,6.84,0,0,0,188.57,291.77Z"/><path d="M188.39,269.75a6.65,6.65,0,1,0-6.66,6.66A6.64,6.64,0,0,0,188.39,269.75Z"/><path d="M186.61,247.73a4.88,4.88,0,1,0-4.88,4.88A4.88,4.88,0,0,0,186.61,247.73Z"/><path d="M187.66,225.72a5.92,5.92,0,1,0-5.93,5.92A5.93,5.93,0,0,0,187.66,225.72Z"/><path d="M186.81,203.7a5.07,5.07,0,1,0-5.08,5.07A5.07,5.07,0,0,0,186.81,203.7Z"/><path d="M186.08,181.69a4.34,4.34,0,1,0-4.35,4.34A4.34,4.34,0,0,0,186.08,181.69Z"/><path d="M187.42,159.66a5.68,5.68,0,1,0-5.69,5.69A5.68,5.68,0,0,0,187.42,159.66Z"/><path d="M186.87,137.66a5.13,5.13,0,1,0-5.14,5.12A5.14,5.14,0,0,0,186.87,137.66Z"/><path d="M188.08,115.64a6.35,6.35,0,1,0-6.35,6.34A6.35,6.35,0,0,0,188.08,115.64Z"/><path d="M189.06,93.63a7.32,7.32,0,1,0-7.33,7.31A7.33,7.33,0,0,0,189.06,93.63Z"/><path d="M189.18,71.61a7.44,7.44,0,1,0-7.45,7.45A7.45,7.45,0,0,0,189.18,71.61Z"/><path d="M182.84,49.6a1.1,1.1,0,1,0-2.2,0,1.1,1.1,0,0,0,2.2,0Z"/><path d="M182,27.58a.25.25,0,0,0-.26-.24.24.24,0,1,0,0,.47A.25.25,0,0,0,182,27.58Z"/><path d="M204.61,335.8a.86.86,0,1,0-1.71,0,.85.85,0,0,0,.85.85A.86.86,0,0,0,204.61,335.8Z"/><path d="M211.74,313.78a8,8,0,1,0-8,8A8,8,0,0,0,211.74,313.78Z"/><path d="M210.59,291.77a6.84,6.84,0,1,0-6.84,6.83A6.84,6.84,0,0,0,210.59,291.77Z"/><path d="M209.92,269.75a6.17,6.17,0,1,0-6.17,6.16A6.16,6.16,0,0,0,209.92,269.75Z"/><path d="M210.1,247.73a6.35,6.35,0,1,0-6.35,6.35A6.34,6.34,0,0,0,210.1,247.73Z"/><path d="M210.83,225.72a7.08,7.08,0,1,0-7.08,7.08A7.07,7.07,0,0,0,210.83,225.72Z"/><path d="M209.13,203.7a5.38,5.38,0,1,0-5.38,5.38A5.37,5.37,0,0,0,209.13,203.7Z"/><path d="M208.32,181.69a4.58,4.58,0,1,0-4.57,4.57A4.57,4.57,0,0,0,208.32,181.69Z"/><path d="M209.13,159.66a5.38,5.38,0,1,0-5.38,5.38A5.36,5.36,0,0,0,209.13,159.66Z"/><circle cx="203.75" cy="137.66" r="6.23"/><path d="M210.89,115.64a7.14,7.14,0,1,0-7.14,7.15A7.13,7.13,0,0,0,210.89,115.64Z"/><circle cx="203.75" cy="93.63" r="7.69"/><path d="M210.47,71.61a6.72,6.72,0,1,0-6.72,6.71A6.72,6.72,0,0,0,210.47,71.61Z"/><path d="M209.8,49.6a6,6,0,1,0-6.05,6A6.05,6.05,0,0,0,209.8,49.6Z"/><circle cx="203.75" cy="27.58" r="5.61"/><path d="M232.54,335.8a6.77,6.77,0,1,0-6.78,6.77A6.77,6.77,0,0,0,232.54,335.8Z"/><path d="M226.63,313.78a.86.86,0,1,0-.87.85A.86.86,0,0,0,226.63,313.78Z"/><path d="M232.54,291.77a6.77,6.77,0,1,0-6.78,6.77A6.77,6.77,0,0,0,232.54,291.77Z"/><path d="M231.69,269.75a5.92,5.92,0,1,0-5.93,5.92A5.92,5.92,0,0,0,231.69,269.75Z"/><path d="M233.47,247.73a7.7,7.7,0,1,0-7.71,7.7A7.7,7.7,0,0,0,233.47,247.73Z"/><path d="M232.06,225.72a6.29,6.29,0,1,0-6.3,6.28A6.3,6.3,0,0,0,232.06,225.72Z"/><path d="M230.64,203.7a4.88,4.88,0,1,0-4.88,4.88A4.88,4.88,0,0,0,230.64,203.7Z"/><path d="M231,181.69a5.25,5.25,0,1,0-5.26,5.24A5.25,5.25,0,0,0,231,181.69Z"/><path d="M228.94,159.66a3.17,3.17,0,1,0-3.18,3.18A3.17,3.17,0,0,0,228.94,159.66Z"/><path d="M228.45,137.66a2.68,2.68,0,1,0-2.69,2.69A2.68,2.68,0,0,0,228.45,137.66Z"/><path d="M232.91,115.64a7.14,7.14,0,1,0-7.15,7.15A7.13,7.13,0,0,0,232.91,115.64Z"/><path d="M230.47,93.63a4.7,4.7,0,1,0-4.71,4.7A4.7,4.7,0,0,0,230.47,93.63Z"/><path d="M233.27,71.61a7.5,7.5,0,1,0-7.51,7.51A7.51,7.51,0,0,0,233.27,71.61Z"/><path d="M226.57,49.6a.8.8,0,1,0-1.6,0,.8.8,0,0,0,1.6,0Z"/><path d="M226,5.57a.26.26,0,0,0-.26-.26.25.25,0,0,0-.24.26.24.24,0,0,0,.24.24A.25.25,0,0,0,226,5.57Z"/><path d="M249.86,335.8a2.08,2.08,0,1,0-2.08,2.07A2.08,2.08,0,0,0,249.86,335.8Z"/><path d="M249.56,313.78a1.78,1.78,0,1,0-1.78,1.77A1.78,1.78,0,0,0,249.56,313.78Z"/><path d="M250.16,291.77a2.38,2.38,0,1,0-2.38,2.37A2.37,2.37,0,0,0,250.16,291.77Z"/><path d="M254.8,269.75a7,7,0,1,0-7,7A7,7,0,0,0,254.8,269.75Z"/><path d="M255,247.73a7.2,7.2,0,1,0-7.2,7.21A7.18,7.18,0,0,0,255,247.73Z"/><circle cx="247.78" cy="225.72" r="6.23"/><path d="M254.44,203.7a6.66,6.66,0,1,0-6.66,6.65A6.66,6.66,0,0,0,254.44,203.7Z"/><path d="M252.67,181.69a4.89,4.89,0,1,0-4.89,4.88A4.88,4.88,0,0,0,252.67,181.69Z"/><path d="M250.47,159.66a2.69,2.69,0,1,0-2.69,2.69A2.69,2.69,0,0,0,250.47,159.66Z"/><path d="M253,137.66a5.19,5.19,0,1,0-5.19,5.18A5.19,5.19,0,0,0,253,137.66Z"/><path d="M253.71,115.64a5.93,5.93,0,1,0-5.93,5.92A5.93,5.93,0,0,0,253.71,115.64Z"/><path d="M253.58,93.63a5.8,5.8,0,1,0-5.8,5.79A5.79,5.79,0,0,0,253.58,93.63Z"/><path d="M248.64,71.61a.86.86,0,1,0-1.71,0,.86.86,0,0,0,1.71,0Z"/><circle cx="247.78" cy="49.6" r="5.61"/><path d="M270.6,291.77a.8.8,0,1,0-.79.79A.8.8,0,0,0,270.6,291.77Z"/><path d="M277.3,269.75a7.5,7.5,0,1,0-7.49,7.51A7.5,7.5,0,0,0,277.3,269.75Z"/><path d="M276.57,247.73a6.77,6.77,0,1,0-6.76,6.78A6.77,6.77,0,0,0,276.57,247.73Z"/><path d="M275.66,225.72a5.86,5.86,0,1,0-5.85,5.86A5.86,5.86,0,0,0,275.66,225.72Z"/><path d="M271.39,203.7a1.59,1.59,0,1,0-1.58,1.59A1.59,1.59,0,0,0,271.39,203.7Z"/><path d="M274.2,181.69a4.4,4.4,0,1,0-4.39,4.39A4.4,4.4,0,0,0,274.2,181.69Z"/><path d="M272.24,159.66a2.44,2.44,0,1,0-2.43,2.45A2.43,2.43,0,0,0,272.24,159.66Z"/><path d="M274.87,137.66a5.07,5.07,0,1,0-5.06,5.06A5.05,5.05,0,0,0,274.87,137.66Z"/><path d="M271.27,115.64a1.47,1.47,0,1,0-1.46,1.46A1.46,1.46,0,0,0,271.27,115.64Z"/><path d="M274.26,93.63a4.46,4.46,0,1,0-4.45,4.45A4.46,4.46,0,0,0,274.26,93.63Z"/><path d="M274.26,71.61a4.46,4.46,0,1,0-4.45,4.46A4.45,4.45,0,0,0,274.26,71.61Z"/><path d="M270,49.6a.25.25,0,0,0-.23-.26.26.26,0,0,0-.26.26.25.25,0,0,0,.26.24A.23.23,0,0,0,270,49.6Z"/><path d="M293.59,291.77a1.77,1.77,0,1,0-1.78,1.77A1.78,1.78,0,0,0,293.59,291.77Z"/><path d="M293.1,269.75a1.29,1.29,0,1,0-1.29,1.28A1.28,1.28,0,0,0,293.1,269.75Z"/><path d="M296.08,247.73a4.27,4.27,0,1,0-4.27,4.28A4.27,4.27,0,0,0,296.08,247.73Z"/><circle cx="291.81" cy="225.72" r="7.57"/><ellipse cx="291.81" cy="203.7" rx="2.99" ry="2.99"/><circle cx="291.81" cy="181.69" r="1.46"/><path d="M298.41,159.66a6.59,6.59,0,1,0-6.6,6.6A6.58,6.58,0,0,0,298.41,159.66Z"/><path d="M295.23,137.66a3.42,3.42,0,1,0-3.42,3.42A3.41,3.41,0,0,0,295.23,137.66Z"/><path d="M295.17,115.64a3.36,3.36,0,1,0-3.36,3.35A3.35,3.35,0,0,0,295.17,115.64Z"/><path d="M295.17,93.63A3.36,3.36,0,1,0,291.81,97,3.36,3.36,0,0,0,295.17,93.63Z"/><circle cx="291.81" cy="71.61" r="5.55"/><circle cx="291.81" cy="49.6" r="0.06"/><path d="M314.07,269.75a.23.23,0,0,0-.23-.24.24.24,0,1,0,0,.48A.23.23,0,0,0,314.07,269.75Z"/><path d="M314.93,247.73a1.1,1.1,0,1,0-1.09,1.11A1.11,1.11,0,0,0,314.93,247.73Z"/><path d="M316.82,225.72a3,3,0,1,0-3,3A3,3,0,0,0,316.82,225.72Z"/><path d="M321.27,203.7a7.44,7.44,0,1,0-7.43,7.45A7.44,7.44,0,0,0,321.27,203.7Z"/><path d="M321.27,181.69a7.44,7.44,0,1,0-7.43,7.45A7.44,7.44,0,0,0,321.27,181.69Z"/><path d="M316.15,159.66a2.32,2.32,0,1,0-2.31,2.33A2.32,2.32,0,0,0,316.15,159.66Z"/><path d="M316,137.66a2.14,2.14,0,1,0-2.13,2.13A2.13,2.13,0,0,0,316,137.66Z"/><path d="M316,115.64a2.14,2.14,0,1,0-2.13,2.13A2.13,2.13,0,0,0,316,115.64Z"/><path d="M318.23,93.63A4.4,4.4,0,1,0,313.84,98,4.41,4.41,0,0,0,318.23,93.63Z"/><path d="M336.28,225.72a.44.44,0,0,0-.44-.43.42.42,0,0,0-.41.43.4.4,0,0,0,.41.42A.43.43,0,0,0,336.28,225.72Z"/><path d="M338.59,137.66a2.75,2.75,0,1,0-2.75,2.75A2.74,2.74,0,0,0,338.59,137.66Z"/><path d="M336.16,115.64a.31.31,0,0,0-.32-.3.3.3,0,0,0-.3.3.31.31,0,0,0,.3.31A.31.31,0,0,0,336.16,115.64Z"/><path d="M336.69,93.63a.84.84,0,0,0-.85-.85.85.85,0,0,0-.85.85.86.86,0,0,0,.85.85A.85.85,0,0,0,336.69,93.63Z"/></g></g></g></svg>