<svg xmlns="http://www.w3.org/2000/svg" width="117" height="299" viewBox="0 0 117 299">
  <path fill="#2952C0" fill-rule="evenodd" d="M114.75,294 C115.992641,294 117,295.007359 117,296.25 C117,297.492641 115.992641,298.5 114.75,298.5 C113.507359,298.5 112.5,297.492641 112.5,296.25 C112.5,295.007359 113.507359,294 114.75,294 Z M92.25,294 C93.4926407,294 94.5,295.007359 94.5,296.25 C94.5,297.492641 93.4926407,298.5 92.25,298.5 C91.0073593,298.5 90,297.492641 90,296.25 C90,295.007359 91.0073593,294 92.25,294 Z M69.75,294 C70.9926407,294 72,295.007359 72,296.25 C72,297.492641 70.9926407,298.5 69.75,298.5 C68.5073593,298.5 67.5,297.492641 67.5,296.25 C67.5,295.007359 68.5073593,294 69.75,294 Z M47.25,294 C48.4926407,294 49.5,295.007359 49.5,296.25 C49.5,297.492641 48.4926407,298.5 47.25,298.5 C46.0073593,298.5 45,297.492641 45,296.25 C45,295.007359 46.0073593,294 47.25,294 Z M24.75,294 C25.9926407,294 27,295.007359 27,296.25 C27,297.492641 25.9926407,298.5 24.75,298.5 C23.5073593,298.5 22.5,297.492641 22.5,296.25 C22.5,295.007359 23.5073593,294 24.75,294 Z M2.25,294 C3.49264069,294 4.5,295.007359 4.5,296.25 C4.5,297.492641 3.49264069,298.5 2.25,298.5 C1.00735931,298.5 0,297.492641 0,296.25 C0,295.007359 1.00735931,294 2.25,294 Z M114.75,273 C115.992641,273 117,274.007359 117,275.25 C117,276.492641 115.992641,277.5 114.75,277.5 C113.507359,277.5 112.5,276.492641 112.5,275.25 C112.5,274.007359 113.507359,273 114.75,273 Z M2.25,273 C3.49264069,273 4.5,274.007359 4.5,275.25 C4.5,276.492641 3.49264069,277.5 2.25,277.5 C1.00735931,277.5 0,276.492641 0,275.25 C0,274.007359 1.00735931,273 2.25,273 Z M24.75,273 C25.9926407,273 27,274.007359 27,275.25 C27,276.492641 25.9926407,277.5 24.75,277.5 C23.5073593,277.5 22.5,276.492641 22.5,275.25 C22.5,274.007359 23.5073593,273 24.75,273 Z M47.25,273 C48.4926407,273 49.5,274.007359 49.5,275.25 C49.5,276.492641 48.4926407,277.5 47.25,277.5 C46.0073593,277.5 45,276.492641 45,275.25 C45,274.007359 46.0073593,273 47.25,273 Z M69.75,273 C70.9926407,273 72,274.007359 72,275.25 C72,276.492641 70.9926407,277.5 69.75,277.5 C68.5073593,277.5 67.5,276.492641 67.5,275.25 C67.5,274.007359 68.5073593,273 69.75,273 Z M92.25,273 C93.4926407,273 94.5,274.007359 94.5,275.25 C94.5,276.492641 93.4926407,277.5 92.25,277.5 C91.0073593,277.5 90,276.492641 90,275.25 C90,274.007359 91.0073593,273 92.25,273 Z M2.25,252 C3.49264069,252 4.5,253.007359 4.5,254.25 C4.5,255.492641 3.49264069,256.5 2.25,256.5 C1.00735931,256.5 0,255.492641 0,254.25 C0,253.007359 1.00735931,252 2.25,252 Z M24.75,252 C25.9926407,252 27,253.007359 27,254.25 C27,255.492641 25.9926407,256.5 24.75,256.5 C23.5073593,256.5 22.5,255.492641 22.5,254.25 C22.5,253.007359 23.5073593,252 24.75,252 Z M114.75,252 C115.992641,252 117,253.007359 117,254.25 C117,255.492641 115.992641,256.5 114.75,256.5 C113.507359,256.5 112.5,255.492641 112.5,254.25 C112.5,253.007359 113.507359,252 114.75,252 Z M47.25,252 C48.4926407,252 49.5,253.007359 49.5,254.25 C49.5,255.492641 48.4926407,256.5 47.25,256.5 C46.0073593,256.5 45,255.492641 45,254.25 C45,253.007359 46.0073593,252 47.25,252 Z M69.75,252 C70.9926407,252 72,253.007359 72,254.25 C72,255.492641 70.9926407,256.5 69.75,256.5 C68.5073593,256.5 67.5,255.492641 67.5,254.25 C67.5,253.007359 68.5073593,252 69.75,252 Z M92.25,252 C93.4926407,252 94.5,253.007359 94.5,254.25 C94.5,255.492641 93.4926407,256.5 92.25,256.5 C91.0073593,256.5 90,255.492641 90,254.25 C90,253.007359 91.0073593,252 92.25,252 Z M24.75,231 C25.9926407,231 27,232.007359 27,233.25 C27,234.492641 25.9926407,235.5 24.75,235.5 C23.5073593,235.5 22.5,234.492641 22.5,233.25 C22.5,232.007359 23.5073593,231 24.75,231 Z M47.25,231 C48.4926407,231 49.5,232.007359 49.5,233.25 C49.5,234.492641 48.4926407,235.5 47.25,235.5 C46.0073593,235.5 45,234.492641 45,233.25 C45,232.007359 46.0073593,231 47.25,231 Z M69.75,231 C70.9926407,231 72,232.007359 72,233.25 C72,234.492641 70.9926407,235.5 69.75,235.5 C68.5073593,235.5 67.5,234.492641 67.5,233.25 C67.5,232.007359 68.5073593,231 69.75,231 Z M92.25,231 C93.4926407,231 94.5,232.007359 94.5,233.25 C94.5,234.492641 93.4926407,235.5 92.25,235.5 C91.0073593,235.5 90,234.492641 90,233.25 C90,232.007359 91.0073593,231 92.25,231 Z M114.75,231 C115.992641,231 117,232.007359 117,233.25 C117,234.492641 115.992641,235.5 114.75,235.5 C113.507359,235.5 112.5,234.492641 112.5,233.25 C112.5,232.007359 113.507359,231 114.75,231 Z M2.25,231 C3.49264069,231 4.5,232.007359 4.5,233.25 C4.5,234.492641 3.49264069,235.5 2.25,235.5 C1.00735931,235.5 0,234.492641 0,233.25 C0,232.007359 1.00735931,231 2.25,231 Z M92.25,210 C93.4926407,210 94.5,211.007359 94.5,212.25 C94.5,213.492641 93.4926407,214.5 92.25,214.5 C91.0073593,214.5 90,213.492641 90,212.25 C90,211.007359 91.0073593,210 92.25,210 Z M69.75,210 C70.9926407,210 72,211.007359 72,212.25 C72,213.492641 70.9926407,214.5 69.75,214.5 C68.5073593,214.5 67.5,213.492641 67.5,212.25 C67.5,211.007359 68.5073593,210 69.75,210 Z M47.25,210 C48.4926407,210 49.5,211.007359 49.5,212.25 C49.5,213.492641 48.4926407,214.5 47.25,214.5 C46.0073593,214.5 45,213.492641 45,212.25 C45,211.007359 46.0073593,210 47.25,210 Z M114.75,210 C115.992641,210 117,211.007359 117,212.25 C117,213.492641 115.992641,214.5 114.75,214.5 C113.507359,214.5 112.5,213.492641 112.5,212.25 C112.5,211.007359 113.507359,210 114.75,210 Z M24.75,210 C25.9926407,210 27,211.007359 27,212.25 C27,213.492641 25.9926407,214.5 24.75,214.5 C23.5073593,214.5 22.5,213.492641 22.5,212.25 C22.5,211.007359 23.5073593,210 24.75,210 Z M2.25,210 C3.49264069,210 4.5,211.007359 4.5,212.25 C4.5,213.492641 3.49264069,214.5 2.25,214.5 C1.00735931,214.5 0,213.492641 0,212.25 C0,211.007359 1.00735931,210 2.25,210 Z M47.25,189 C48.4926407,189 49.5,190.007359 49.5,191.25 C49.5,192.492641 48.4926407,193.5 47.25,193.5 C46.0073593,193.5 45,192.492641 45,191.25 C45,190.007359 46.0073593,189 47.25,189 Z M92.25,189 C93.4926407,189 94.5,190.007359 94.5,191.25 C94.5,192.492641 93.4926407,193.5 92.25,193.5 C91.0073593,193.5 90,192.492641 90,191.25 C90,190.007359 91.0073593,189 92.25,189 Z M69.75,189 C70.9926407,189 72,190.007359 72,191.25 C72,192.492641 70.9926407,193.5 69.75,193.5 C68.5073593,193.5 67.5,192.492641 67.5,191.25 C67.5,190.007359 68.5073593,189 69.75,189 Z M24.75,189 C25.9926407,189 27,190.007359 27,191.25 C27,192.492641 25.9926407,193.5 24.75,193.5 C23.5073593,193.5 22.5,192.492641 22.5,191.25 C22.5,190.007359 23.5073593,189 24.75,189 Z M2.25,189 C3.49264069,189 4.5,190.007359 4.5,191.25 C4.5,192.492641 3.49264069,193.5 2.25,193.5 C1.00735931,193.5 0,192.492641 0,191.25 C0,190.007359 1.00735931,189 2.25,189 Z M114.75,189 C115.992641,189 117,190.007359 117,191.25 C117,192.492641 115.992641,193.5 114.75,193.5 C113.507359,193.5 112.5,192.492641 112.5,191.25 C112.5,190.007359 113.507359,189 114.75,189 Z M92.25,168 C93.4926407,168 94.5,169.007359 94.5,170.25 C94.5,171.492641 93.4926407,172.5 92.25,172.5 C91.0073593,172.5 90,171.492641 90,170.25 C90,169.007359 91.0073593,168 92.25,168 Z M114.75,168 C115.992641,168 117,169.007359 117,170.25 C117,171.492641 115.992641,172.5 114.75,172.5 C113.507359,172.5 112.5,171.492641 112.5,170.25 C112.5,169.007359 113.507359,168 114.75,168 Z M24.75,168 C25.9926407,168 27,169.007359 27,170.25 C27,171.492641 25.9926407,172.5 24.75,172.5 C23.5073593,172.5 22.5,171.492641 22.5,170.25 C22.5,169.007359 23.5073593,168 24.75,168 Z M47.25,168 C48.4926407,168 49.5,169.007359 49.5,170.25 C49.5,171.492641 48.4926407,172.5 47.25,172.5 C46.0073593,172.5 45,171.492641 45,170.25 C45,169.007359 46.0073593,168 47.25,168 Z M69.75,168 C70.9926407,168 72,169.007359 72,170.25 C72,171.492641 70.9926407,172.5 69.75,172.5 C68.5073593,172.5 67.5,171.492641 67.5,170.25 C67.5,169.007359 68.5073593,168 69.75,168 Z M2.25,168 C3.49264069,168 4.5,169.007359 4.5,170.25 C4.5,171.492641 3.49264069,172.5 2.25,172.5 C1.00735931,172.5 0,171.492641 0,170.25 C0,169.007359 1.00735931,168 2.25,168 Z M47.25,147 C48.4926407,147 49.5,148.007359 49.5,149.25 C49.5,150.492641 48.4926407,151.5 47.25,151.5 C46.0073593,151.5 45,150.492641 45,149.25 C45,148.007359 46.0073593,147 47.25,147 Z M24.75,147 C25.9926407,147 27,148.007359 27,149.25 C27,150.492641 25.9926407,151.5 24.75,151.5 C23.5073593,151.5 22.5,150.492641 22.5,149.25 C22.5,148.007359 23.5073593,147 24.75,147 Z M2.25,147 C3.49264069,147 4.5,148.007359 4.5,149.25 C4.5,150.492641 3.49264069,151.5 2.25,151.5 C1.00735931,151.5 0,150.492641 0,149.25 C0,148.007359 1.00735931,147 2.25,147 Z M114.75,147 C115.992641,147 117,148.007359 117,149.25 C117,150.492641 115.992641,151.5 114.75,151.5 C113.507359,151.5 112.5,150.492641 112.5,149.25 C112.5,148.007359 113.507359,147 114.75,147 Z M92.25,147 C93.4926407,147 94.5,148.007359 94.5,149.25 C94.5,150.492641 93.4926407,151.5 92.25,151.5 C91.0073593,151.5 90,150.492641 90,149.25 C90,148.007359 91.0073593,147 92.25,147 Z M69.75,147 C70.9926407,147 72,148.007359 72,149.25 C72,150.492641 70.9926407,151.5 69.75,151.5 C68.5073593,151.5 67.5,150.492641 67.5,149.25 C67.5,148.007359 68.5073593,147 69.75,147 Z M2.25,126 C3.49264069,126 4.5,127.007359 4.5,128.25 C4.5,129.492641 3.49264069,130.5 2.25,130.5 C1.00735931,130.5 0,129.492641 0,128.25 C0,127.007359 1.00735931,126 2.25,126 Z M69.75,126 C70.9926407,126 72,127.007359 72,128.25 C72,129.492641 70.9926407,130.5 69.75,130.5 C68.5073593,130.5 67.5,129.492641 67.5,128.25 C67.5,127.007359 68.5073593,126 69.75,126 Z M47.25,126 C48.4926407,126 49.5,127.007359 49.5,128.25 C49.5,129.492641 48.4926407,130.5 47.25,130.5 C46.0073593,130.5 45,129.492641 45,128.25 C45,127.007359 46.0073593,126 47.25,126 Z M24.75,126 C25.9926407,126 27,127.007359 27,128.25 C27,129.492641 25.9926407,130.5 24.75,130.5 C23.5073593,130.5 22.5,129.492641 22.5,128.25 C22.5,127.007359 23.5073593,126 24.75,126 Z M114.75,126 C115.992641,126 117,127.007359 117,128.25 C117,129.492641 115.992641,130.5 114.75,130.5 C113.507359,130.5 112.5,129.492641 112.5,128.25 C112.5,127.007359 113.507359,126 114.75,126 Z M92.25,126 C93.4926407,126 94.5,127.007359 94.5,128.25 C94.5,129.492641 93.4926407,130.5 92.25,130.5 C91.0073593,130.5 90,129.492641 90,128.25 C90,127.007359 91.0073593,126 92.25,126 Z M47.25,105 C48.4926407,105 49.5,106.007359 49.5,107.25 C49.5,108.492641 48.4926407,109.5 47.25,109.5 C46.0073593,109.5 45,108.492641 45,107.25 C45,106.007359 46.0073593,105 47.25,105 Z M24.75,105 C25.9926407,105 27,106.007359 27,107.25 C27,108.492641 25.9926407,109.5 24.75,109.5 C23.5073593,109.5 22.5,108.492641 22.5,107.25 C22.5,106.007359 23.5073593,105 24.75,105 Z M92.25,105 C93.4926407,105 94.5,106.007359 94.5,107.25 C94.5,108.492641 93.4926407,109.5 92.25,109.5 C91.0073593,109.5 90,108.492641 90,107.25 C90,106.007359 91.0073593,105 92.25,105 Z M69.75,105 C70.9926407,105 72,106.007359 72,107.25 C72,108.492641 70.9926407,109.5 69.75,109.5 C68.5073593,109.5 67.5,108.492641 67.5,107.25 C67.5,106.007359 68.5073593,105 69.75,105 Z M2.25,105 C3.49264069,105 4.5,106.007359 4.5,107.25 C4.5,108.492641 3.49264069,109.5 2.25,109.5 C1.00735931,109.5 0,108.492641 0,107.25 C0,106.007359 1.00735931,105 2.25,105 Z M114.75,105 C115.992641,105 117,106.007359 117,107.25 C117,108.492641 115.992641,109.5 114.75,109.5 C113.507359,109.5 112.5,108.492641 112.5,107.25 C112.5,106.007359 113.507359,105 114.75,105 Z M114.75,84 C115.992641,84 117,85.0073593 117,86.25 C117,87.4926407 115.992641,88.5 114.75,88.5 C113.507359,88.5 112.5,87.4926407 112.5,86.25 C112.5,85.0073593 113.507359,84 114.75,84 Z M92.25,84 C93.4926407,84 94.5,85.0073593 94.5,86.25 C94.5,87.4926407 93.4926407,88.5 92.25,88.5 C91.0073593,88.5 90,87.4926407 90,86.25 C90,85.0073593 91.0073593,84 92.25,84 Z M69.75,84 C70.9926407,84 72,85.0073593 72,86.25 C72,87.4926407 70.9926407,88.5 69.75,88.5 C68.5073593,88.5 67.5,87.4926407 67.5,86.25 C67.5,85.0073593 68.5073593,84 69.75,84 Z M24.75,84 C25.9926407,84 27,85.0073593 27,86.25 C27,87.4926407 25.9926407,88.5 24.75,88.5 C23.5073593,88.5 22.5,87.4926407 22.5,86.25 C22.5,85.0073593 23.5073593,84 24.75,84 Z M2.25,84 C3.49264069,84 4.5,85.0073593 4.5,86.25 C4.5,87.4926407 3.49264069,88.5 2.25,88.5 C1.00735931,88.5 0,87.4926407 0,86.25 C0,85.0073593 1.00735931,84 2.25,84 Z M47.25,84 C48.4926407,84 49.5,85.0073593 49.5,86.25 C49.5,87.4926407 48.4926407,88.5 47.25,88.5 C46.0073593,88.5 45,87.4926407 45,86.25 C45,85.0073593 46.0073593,84 47.25,84 Z M2.25,63 C3.49264069,63 4.5,64.0073593 4.5,65.25 C4.5,66.4926407 3.49264069,67.5 2.25,67.5 C1.00735931,67.5 0,66.4926407 0,65.25 C0,64.0073593 1.00735931,63 2.25,63 Z M92.25,63 C93.4926407,63 94.5,64.0073593 94.5,65.25 C94.5,66.4926407 93.4926407,67.5 92.25,67.5 C91.0073593,67.5 90,66.4926407 90,65.25 C90,64.0073593 91.0073593,63 92.25,63 Z M69.75,63 C70.9926407,63 72,64.0073593 72,65.25 C72,66.4926407 70.9926407,67.5 69.75,67.5 C68.5073593,67.5 67.5,66.4926407 67.5,65.25 C67.5,64.0073593 68.5073593,63 69.75,63 Z M24.75,63 C25.9926407,63 27,64.0073593 27,65.25 C27,66.4926407 25.9926407,67.5 24.75,67.5 C23.5073593,67.5 22.5,66.4926407 22.5,65.25 C22.5,64.0073593 23.5073593,63 24.75,63 Z M47.25,63 C48.4926407,63 49.5,64.0073593 49.5,65.25 C49.5,66.4926407 48.4926407,67.5 47.25,67.5 C46.0073593,67.5 45,66.4926407 45,65.25 C45,64.0073593 46.0073593,63 47.25,63 Z M114.75,63 C115.992641,63 117,64.0073593 117,65.25 C117,66.4926407 115.992641,67.5 114.75,67.5 C113.507359,67.5 112.5,66.4926407 112.5,65.25 C112.5,64.0073593 113.507359,63 114.75,63 Z M69.75,42 C70.9926407,42 72,43.0073593 72,44.25 C72,45.4926407 70.9926407,46.5 69.75,46.5 C68.5073593,46.5 67.5,45.4926407 67.5,44.25 C67.5,43.0073593 68.5073593,42 69.75,42 Z M2.25,42 C3.49264069,42 4.5,43.0073593 4.5,44.25 C4.5,45.4926407 3.49264069,46.5 2.25,46.5 C1.00735931,46.5 0,45.4926407 0,44.25 C0,43.0073593 1.00735931,42 2.25,42 Z M47.25,42 C48.4926407,42 49.5,43.0073593 49.5,44.25 C49.5,45.4926407 48.4926407,46.5 47.25,46.5 C46.0073593,46.5 45,45.4926407 45,44.25 C45,43.0073593 46.0073593,42 47.25,42 Z M114.75,42 C115.992641,42 117,43.0073593 117,44.25 C117,45.4926407 115.992641,46.5 114.75,46.5 C113.507359,46.5 112.5,45.4926407 112.5,44.25 C112.5,43.0073593 113.507359,42 114.75,42 Z M92.25,42 C93.4926407,42 94.5,43.0073593 94.5,44.25 C94.5,45.4926407 93.4926407,46.5 92.25,46.5 C91.0073593,46.5 90,45.4926407 90,44.25 C90,43.0073593 91.0073593,42 92.25,42 Z M24.75,42 C25.9926407,42 27,43.0073593 27,44.25 C27,45.4926407 25.9926407,46.5 24.75,46.5 C23.5073593,46.5 22.5,45.4926407 22.5,44.25 C22.5,43.0073593 23.5073593,42 24.75,42 Z M2.25,21 C3.49264069,21 4.5,22.0073593 4.5,23.25 C4.5,24.4926407 3.49264069,25.5 2.25,25.5 C1.00735931,25.5 0,24.4926407 0,23.25 C0,22.0073593 1.00735931,21 2.25,21 Z M24.75,21 C25.9926407,21 27,22.0073593 27,23.25 C27,24.4926407 25.9926407,25.5 24.75,25.5 C23.5073593,25.5 22.5,24.4926407 22.5,23.25 C22.5,22.0073593 23.5073593,21 24.75,21 Z M47.25,21 C48.4926407,21 49.5,22.0073593 49.5,23.25 C49.5,24.4926407 48.4926407,25.5 47.25,25.5 C46.0073593,25.5 45,24.4926407 45,23.25 C45,22.0073593 46.0073593,21 47.25,21 Z M69.75,21 C70.9926407,21 72,22.0073593 72,23.25 C72,24.4926407 70.9926407,25.5 69.75,25.5 C68.5073593,25.5 67.5,24.4926407 67.5,23.25 C67.5,22.0073593 68.5073593,21 69.75,21 Z M92.25,21 C93.4926407,21 94.5,22.0073593 94.5,23.25 C94.5,24.4926407 93.4926407,25.5 92.25,25.5 C91.0073593,25.5 90,24.4926407 90,23.25 C90,22.0073593 91.0073593,21 92.25,21 Z M114.75,21 C115.992641,21 117,22.0073593 117,23.25 C117,24.4926407 115.992641,25.5 114.75,25.5 C113.507359,25.5 112.5,24.4926407 112.5,23.25 C112.5,22.0073593 113.507359,21 114.75,21 Z M2.25,0 C3.49264069,0 4.5,1.00735931 4.5,2.25 C4.5,3.49264069 3.49264069,4.5 2.25,4.5 C1.00735931,4.5 0,3.49264069 0,2.25 C0,1.00735931 1.00735931,0 2.25,0 Z M24.75,0 C25.9926407,0 27,1.00735931 27,2.25 C27,3.49264069 25.9926407,4.5 24.75,4.5 C23.5073593,4.5 22.5,3.49264069 22.5,2.25 C22.5,1.00735931 23.5073593,0 24.75,0 Z M47.25,0 C48.4926407,0 49.5,1.00735931 49.5,2.25 C49.5,3.49264069 48.4926407,4.5 47.25,4.5 C46.0073593,4.5 45,3.49264069 45,2.25 C45,1.00735931 46.0073593,0 47.25,0 Z M69.75,0 C70.9926407,0 72,1.00735931 72,2.25 C72,3.49264069 70.9926407,4.5 69.75,4.5 C68.5073593,4.5 67.5,3.49264069 67.5,2.25 C67.5,1.00735931 68.5073593,0 69.75,0 Z M92.25,0 C93.4926407,0 94.5,1.00735931 94.5,2.25 C94.5,3.49264069 93.4926407,4.5 92.25,4.5 C91.0073593,4.5 90,3.49264069 90,2.25 C90,1.00735931 91.0073593,0 92.25,0 Z M114.75,0 C115.992641,0 117,1.00735931 117,2.25 C117,3.49264069 115.992641,4.5 114.75,4.5 C113.507359,4.5 112.5,3.49264069 112.5,2.25 C112.5,1.00735931 113.507359,0 114.75,0 Z" opacity=".188"/>
</svg>
