<svg fill="none" xmlns="http://www.w3.org/2000/svg" viewBox="0 0 295 120">
  <path d="M102.445 80.082c-.106 3.978-2.693 8.643-6.064 10.634-3.274 1.898-8.071 4.65-11.346 6.55-5.542 3.201-11.726 6.77-17.267 9.969-13.377 8.324-14.524 7.052-27.53-.667-8.992-5.19-18.462-10.661-27.457-15.852-3.218-1.858-5.851-6.42-5.851-10.136.028-5.624-.04-17.517 0-23.07.032-6.059-.06-13.027.026-19.07.355-3.78 2.867-8.166 6.039-10.003L48.943 7.683c3.218-1.858 8.485-1.858 11.703 0l35.948 20.754c3.161 1.826 5.756 6.257 5.847 9.936.035 13.254-.03 28.394.004 41.709Zm-2.015-53.458L60.224 3.41c-1.61-.929-3.73-1.393-5.852-1.393-2.121 0-4.242.464-5.852 1.393L8.314 26.623c-3.218 1.859-5.852 6.42-5.852 10.136v46.426c0 3.716 2.634 8.277 5.852 10.135l40.206 23.214c.388.223.808.419 1.248.589 3.444 1.128 7.917.857 10.856-.821L100.43 93.32a7.25 7.25 0 0 0 .333-.204c2.398-1.703 4.402-4.723 5.242-7.726.179-.75.277-1.493.277-2.205V36.759c0-3.716-2.634-8.277-5.852-10.136Z" fill="#fff"/>
  <path d="M106.282 83.185c0 .712-.098 1.455-.277 2.205-.723 3.024-2.786 6.147-5.242 7.726a7.25 7.25 0 0 1-.333.204l-39.806 22.982-.4.232c-1.61.928-3.73 1.393-5.852 1.393-1.61 0-3.218-.269-4.604-.804-.44-.17-.86-.366-1.248-.589L8.314 93.32c-3.218-1.858-5.852-6.419-5.852-10.135V36.759c0-3.716 2.634-8.277 5.852-10.136L48.52 3.41c1.61-.929 3.73-1.393 5.852-1.393 2.121 0 4.243.464 5.852 1.393l40.206 23.214c3.218 1.858 5.852 6.419 5.852 10.135v46.426Zm-5.018-58.007L61.058 1.965C59.252.923 56.877.348 54.372.348s-4.88.575-6.686 1.617L7.48 25.178C3.73 27.343.794 32.43.794 36.758v46.427c0 4.329 2.937 9.416 6.686 11.58l40.206 23.213c1.806 1.043 4.18 1.618 6.686 1.618 2.505 0 4.88-.575 6.686-1.618l40.206-23.213c3.749-2.164 6.686-7.251 6.686-11.58V36.759c0-4.33-2.937-9.416-6.686-11.58Z" fill="#158CA0"/>
  <path d="M96.594 28.437 60.646 7.683c-3.218-1.858-8.485-1.858-11.703 0L12.995 28.437c-3.172 1.836-5.684 6.224-6.039 10.003-.085 6.043.006 13.011-.026 19.07-.04 5.553.028 17.446 0 23.07 0 3.717 2.633 8.278 5.851 10.136 8.995 5.19 18.465 10.662 27.457 15.852 13.006 7.719 14.154 8.991 27.53.667 5.54-3.199 11.725-6.768 17.267-9.969 3.275-1.9 8.072-4.652 11.346-6.55 3.37-1.991 5.958-6.656 6.064-10.634-.034-13.315.031-28.455-.004-41.709-.091-3.679-2.686-8.11-5.847-9.936" fill="#158CA0"/>
  <path d="M30.838 38.935c-.804-6.595-5.335-7.872-10.98-5.061 3.547 1.185 5.748 2.37 8.552 4.537.81.18 1.62.355 2.428.524Zm-7.933 2.673c.22-1.716 1.664-2.531 3.764-2.857-5.221-1.931-13.583-3.658-18.125.496a8.198 8.198 0 0 0-.025.61v1.736c4.48-1.451 9.906-1.897 14.386.014m-1.335 1.077c-4.949.096-9.386.328-13.051 1.445v4.33c3.872-2.176 7.942-3.851 11.633-4.63.472-.38.945-.762 1.417-1.145Zm1.485 13.094c-3.607 2.071-5.427 4.214-6.994 7.232.83-6.092 1.975-7.123 6.681-11.446-.664-.474-1.352-1.038-1.532-2.122-1.204.099-3.016.77-4.25 1.513a728.53 728.53 0 0 0 4.974-3.902v-2.726c-4.969 1.382-9.576 2.672-13.415 5.493v5.645c2.051-2.648 4.856-4.912 8.337-6.757-4.025 3.168-6.61 6.098-8.337 8.923v9.495c1.045-1.59 2.401-3.08 4.117-4.442-3.095 6.533-4.904 19.35 1.788 27.11l2.766 1.597c-4.114-10.642-.75-29.388 5.865-35.613" fill="#fff"/>
  <path d="M24.769 57.607c-9.509 15.623-4.82 25.98-2.87 36.503l3.458 1.996c2.844-11.787-7.102-19.412-.588-38.5" fill="#fff"/>
  <path d="M32.278 73.098c-2.017-1.026-3.39-3.234-4.951-6.347-5.15 6.508 4.164 17.203 1.747 31.501l2.572 1.485c5.233-9.89-2.695-18.941.632-26.64m6.227 5.983c1.774-.306 3.404-.858 4.447-2.212-3.984.219-6.562-.106-8.527-2.82-2.456 8.206 5.717 15.863.752 27.728l1.464.845c3.615-4.22 4.948-8.25 2.937-17.94 4.605 6.208 4.525 14.012 1.05 20.241l1.29.746c7.261-6.216 5.391-14.354 2.7-20.564 1.85.288 5.153.037 6.081-2.39-3.09.669-8.636-.888-12.194-3.634m-7.047-39.188 1.163 1.384c0 .02 3.628-2.352 2.467-5.717-1.158-3.324-6.222-5.566-8.116-5.538.002.026 6.086 5.583 4.486 9.87Z" fill="#fff"/>
  <path d="M34.38 41.43c.852.208 1.703.413 2.554.612 0 .002 2.114.197 2.568-3.482.46-3.7-5.666-10.876-7.349-9.31.004-.013 6.774 7.492 2.227 12.18Zm11.974 10.84-.015.028c-.21-.161-.418-.315-.622-.458 0-.002-.281.945-1.466 1.99a39.874 39.874 0 0 1-2.6 2.07c1.241-2.035-.476-2.41-2.096-3.43.368.044 1.344-.512 1.099-.802 0-.001 1.098 1.175 1.56 1.328.462.152 1.308.299 1.557.081.25-.217.326-.696.48-1.2.154-.505.192-.947.192-.947s-1.814-.877-2.569-1.85c-.782-1.008-.872-1.331-.872-1.332 0 0 .43.407 1.33.814a31.93 31.93 0 0 0 1.316.568c-.001 0-.86-2.762-3.11-4.549-2.25-1.794-4.897-2.27-8.681-2.183 1.29 1.196 5.046 4.625 3.682 6.294-1.275 1.55-2.464 2.352-1.362 2.785 1.103.434 3.966.801 3.965.799-1.198 2.055-4.706 1.198-6.618-.124a3.628 3.628 0 0 1-.426-.324 3.917 3.917 0 0 1-.403-.389c-.257-.27-.499-.562-.719-.834a26.913 26.913 0 0 1-.432-.545c-1.683-2.167-1.924-3.89-1.954-4.473a14.11 14.11 0 0 1-.003-.215c0-.843.101-2.701 1.376-2.741 1.357-.047 1.394.841 1.7 1.883l1.308.882c-.394-2.18-1.599-4.857-4.144-4.772-1.106.036-2.333.47-3.055 1.77-1.203 2.163-1.497 4.456-.44 6.977 1.482 3.534 3.47 4.689 3.47 4.688-.303 3.415-.342 8.271-1.577 11.447 1.933-1.723 2.494-2.49 2.893-4.158.465-1.938.814-4.345 3.862-4.435 1.43-.045 2.475.6 3.55 1.47 1.43 1.155 2.893 1.791 4.678.851a5.03 5.03 0 0 1-.376.542c-.519.517-1.303 1.137-2.036 1.105-1.236-.056-4.42-1.945-5.572-1.919a1.88 1.88 0 0 0-.241.022c-3.856.273-5.075 8.66 2.696 13.356 1.013.612 5.702.539 6.25.552 1.39.026 1.934-.254 2.462-.667.53-.411 1.057-1.21 1.057-1.21.087.716.352 2.275-.057 2.881 1.396-.512 1.6-1.107 1.796-2.293.532.462.566 1.632.213 2.431 2.208-1.179 2.773-3.28 2.854-5.677 0 0 .048-.45.053-.715-1.737.06-3.48.119-5.23.175 0 0 .162-.051 0 0-.108.03-1.047-2.645-1.047-2.983 0-.171 2.302-3.182 1.973 1.069-.056.736 2.821.26 4.87-.019 0 .002.713-1.145.57-2.138.003-.003-3.23-.56-2.8-3.763 1.146 2.743 2.821 3.101 2.82 3.098.873.127 2.264-2.373 2.552-2.927l.005-.002s.02-.027.042-.087l.008-.016-.004.003c.136-.42.239-2.715-7.712-7.782m32.013-13.335c.809-.169 1.618-.343 2.427-.524 2.805-2.166 5.006-3.352 8.553-4.537-5.644-2.81-10.176-1.534-10.98 5.06Zm22.223.248c-4.557-4.073-12.86-2.354-18.053-.432 2.099.326 3.543 1.14 3.763 2.857 4.45-1.899 9.832-1.472 14.295-.045v-2.187c0-.064-.003-.128-.005-.193ZM89.053 43.83c3.662.772 7.697 2.427 11.542 4.578v-4.306c-3.648-1.094-8.052-1.323-12.96-1.418l1.418 1.146Zm-1.782 3.223a728.482 728.482 0 0 0 4.974 3.902c-1.234-.744-3.046-1.414-4.25-1.513-.18 1.084-.868 1.648-1.532 2.122 4.706 4.323 5.85 5.354 6.68 11.446-1.565-3.018-3.386-5.161-6.993-7.232 6.569 6.182 9.933 24.714 5.95 35.392l2.648-1.529a8.11 8.11 0 0 0 .33-.204c6.339-7.79 4.539-20.318 1.49-26.752 1.668 1.322 2.993 2.766 4.027 4.305v-9.505c-1.727-2.78-4.29-5.664-8.246-8.777 3.43 1.818 6.202 4.044 8.246 6.642v-5.596c-3.82-2.775-8.395-4.056-13.324-5.427v2.726" fill="#fff"/>
  <path d="m83.811 95.955 3.53-2.037c1.972-10.458 6.546-20.783-2.905-36.311 6.486 19.006-3.348 26.646-.625 38.348" fill="#fff"/>
  <path d="M81.878 66.75c-1.56 3.114-2.933 5.322-4.95 6.348 3.31 7.664-4.534 16.669.56 26.508l2.617-1.51c-2.322-14.22 6.903-24.861 1.773-31.345m-7.098 7.297c-1.965 2.714-4.543 3.039-8.526 2.82 1.042 1.354 2.672 1.906 4.445 2.212-3.556 2.746-9.103 4.303-12.193 3.634.929 2.427 4.231 2.678 6.082 2.39-2.678 6.176-4.543 14.259 2.578 20.462l1.337-.773c-3.404-6.207-3.45-13.947 1.124-20.113-1.993 9.603-.701 13.647 2.839 17.826l1.504-.869c-4.844-11.785 3.257-19.415.81-27.589m-.663-38.488c-1.16 3.364 2.466 5.735 2.468 5.716l1.162-1.384c-1.6-4.288 4.484-9.845 4.486-9.872-1.894-.027-6.958 2.215-8.116 5.54" fill="#fff"/>
  <path d="M72.272 42.042c.85-.2 1.701-.404 2.553-.612-4.547-4.688 2.224-12.193 2.227-12.18-1.683-1.566-7.808 5.61-7.35 9.31.455 3.679 2.569 3.483 2.57 3.482m-9.07 23.861c-.33-4.251 1.972-1.24 1.973-1.069 0 .337-.94 3.014-1.048 2.983-.161-.051 0 0 0 0-1.748-.056-3.492-.114-5.228-.175.004.264.052.715.052.715.08 2.396.646 4.498 2.854 5.677-.353-.799-.319-1.969.214-2.431.195 1.186.398 1.78 1.795 2.293-.41-.606-.144-2.165-.057-2.881 0 0 .528.799 1.057 1.21.529.413 1.072.693 2.462.667.548-.013 5.237.06 6.25-.552 7.771-4.696 6.553-13.083 2.697-13.356a1.887 1.887 0 0 0-.243-.022c-1.151-.026-4.335 1.863-5.57 1.92-.734.031-1.519-.59-2.036-1.106a4.96 4.96 0 0 1-.377-.542c1.785.94 3.247.304 4.677-.851 1.075-.87 2.121-1.515 3.55-1.47 3.049.09 3.399 2.497 3.862 4.435.4 1.667.961 2.435 2.894 4.158-1.235-3.176-1.274-8.032-1.577-11.447 0 .001 1.988-1.154 3.47-4.688 1.057-2.52.763-4.814-.44-6.977-.722-1.3-1.949-1.734-3.055-1.77-2.545-.085-3.75 2.593-4.143 4.772l1.306-.882c.307-1.042.344-1.93 1.701-1.883 1.275.04 1.376 1.898 1.376 2.742l-.003.214c-.03.583-.27 2.306-1.955 4.473-.137.18-.284.363-.431.545-.22.272-.462.564-.72.834-.114.13-.251.26-.403.389-.139.121-.28.232-.424.324-1.913 1.322-5.42 2.18-6.619.124-.001.002 2.863-.365 3.965-.799 1.101-.433-.088-1.236-1.361-2.785-1.365-1.67 2.39-5.098 3.681-6.294-3.784-.087-6.432.389-8.682 2.183-2.248 1.787-3.108 4.548-3.109 4.55 0 0 .414-.163 1.316-.57.9-.406 1.33-.813 1.33-.813s-.09.324-.872 1.332c-.755.973-2.57 1.85-2.57 1.85s.04.442.193.946c.153.505.23.984.48 1.201.25.218 1.095.072 1.557-.08.462-.154 1.56-1.33 1.56-1.329-.245.29.73.846 1.099.801-1.62 1.02-3.337 1.396-2.095 3.43 0 .001-1.416-1.023-2.6-2.07-1.186-1.044-1.467-1.99-1.467-1.99-.204.144-.412.298-.621.459l-.016-.028c-7.95 5.067-7.849 7.361-7.712 7.782l-.004-.003.009.016c.02.06.041.088.041.088l.005.001c.289.554 1.68 3.053 2.552 2.927-.001.003 1.675-.355 2.82-3.098.43 3.203-2.803 3.76-2.8 3.763-.143.993.569 2.14.569 2.138 2.05.28 4.927.755 4.871.019" fill="#fff"/>
  <path d="M124.879 30.456h5.249l6.821 20.035h.071l6.856-20.035h5.07v24.642h-3.534V33.814h-.071l-7.215 21.284h-2.998l-7.215-21.284h-.07v21.284h-2.964V30.456Zm38.564 12.571c0-1.321-.465-3.82-3.144-3.82-2.785 0-3.322 2.856-3.392 3.82h6.536Zm3.213 11.5c-1.5.606-2.822.963-4.965.963-4.714 0-8.5-2.785-8.5-9.642 0-4.714 1.895-8.142 7.251-8.142 5.499 0 6.536 3.679 6.536 6.964h-10.179c0 3.357 1.5 8.928 6.606 8.928 1.109 0 2.18-.214 3.251-.714v1.642Zm10.46-1.322c2.965 0 3.394-3.785 3.394-6.607 0-2.964-.286-6.82-3.394-6.82-2.821 0-3.427 3.856-3.427 6.82 0 2.822.534 6.607 3.427 6.607Zm3.537-.893h-.073c-.499 1.143-1.678 3.178-4.428 3.178-4.892 0-6.392-4-6.392-8.892 0-5.106 1.894-8.892 6.392-8.892 2.893 0 3.929 1.821 4.428 2.75h.073v-10h3.605v24.642h-3.605v-2.786Zm9.032-14.212h3.605v16.998h-3.605V38.099Zm-.143-7.644h3.891v3.572h-3.891v-3.572Zm21.069 24.177c-1.465.536-3.001.857-4.536.857-5.392 0-8.535-3.249-8.535-9.57 0-5.071 2.32-8.214 7.213-8.214 4.571 0 6.107 2.429 6.107 5.928h-3.786c0-2.035-.214-4.428-2.464-4.428-2.07 0-3.141 2.429-3.141 5.5 0 4.142 1.749 8.892 6.106 8.892 1.036 0 2.035-.25 3.036-.643v1.678m13.675-3.571h-.072c-.572 1.25-2.178 4.428-5.929 4.428-2.998 0-4.285-2.499-4.285-4.964V38.1h3.608v10.642c0 2.142.321 4.071 2.142 4.071 3.571 0 4.572-5.57 4.572-7.678V38.1h3.607v16.999h-3.643v-4.036m17.467-9.607c-1.214-.822-2.572-1.678-4.285-1.678-1.144 0-2.429.5-2.429 1.785 0 3.071 7.785 3.357 7.785 8.785 0 3.643-2.857 5.142-6.462 5.142-2.181 0-3.679-.464-4.536-.75v-3.32c1.036.714 2.714 1.785 4.713 1.785 2.07 0 2.929-1.071 2.929-2.143 0-3-7.678-3.607-7.678-8.463 0-2.572 1.714-4.893 5.964-4.893 1.821 0 3.392.5 3.999.679v3.071M136.565 67.42c-1.178-.536-3.214-1.393-5.429-1.393-2.927 0-4.749 1.678-4.749 4 0 3.643 3.071 4.035 7.537 6.714 2.39 1.464 4.069 2.75 4.069 6.213 0 4.965-4.034 6.857-8.176 6.857-2.607 0-4.892-.428-5.464-.571v-2.535c.893.427 3.178 1.392 5.607 1.392 3.036 0 5.604-1.464 5.604-4.892 0-3.107-2.534-4.179-4.997-5.464-3.322-1.786-6.357-3.108-6.357-7.25 0-3.677 2.784-6.106 7.463-6.106 2.143 0 3.821.32 4.892.57v2.464m17.567-.999h-5.823v-1.643h13.857v1.642h-5.821v23h-2.213v-23m21.609 13.178h8.106l-3.999-12.534h-.073l-4.034 12.534Zm2.998-14.82h2.537l8 24.641h-2.216l-2.679-8.178h-9.177l-2.677 8.178h-1.786l7.998-24.64Zm38.066 16.463c0 4.285-1.859 8.57-7.75 8.57-5.893 0-7.536-4.285-7.536-8.57V64.777h2.215v15.785c0 2.179 0 7.606 5.465 7.606 5.391 0 5.391-5.427 5.391-7.606V64.777h2.215V81.24Zm14.993-16.463h10.678v1.642h-8.463v9.285h8.036v1.644h-8.036v12.07h-2.215v-24.64m22.815-.001h10.928v1.642h-8.713v9.285h8.285v1.644h-8.285v10.356h9.035v1.714h-11.25v-24.64m24.815-.001h2.749l10.716 22.105h.07V64.777H295v24.641h-2.93l-10.535-21.927h-.07v21.927h-2.037v-24.64Z" fill="#231F20"/>
</svg>
