<svg fill="none" xmlns="http://www.w3.org/2000/svg" viewBox="0 0 180 73">
  <path d="M62.712 48.915c-.065 2.424-1.641 5.265-3.695 6.478-1.994 1.156-4.916 2.832-6.91 3.99l-10.518 6.072c-8.148 5.07-8.847 4.295-16.77-.406L8.097 55.393c-1.96-1.132-3.565-3.91-3.565-6.174.018-3.426-.024-10.67 0-14.053.02-3.69-.036-7.935.017-11.616.215-2.302 1.746-4.974 3.678-6.092L30.122 4.816c1.96-1.132 5.168-1.132 7.129 0l21.896 12.642c1.926 1.112 3.506 3.811 3.562 6.052.021 8.073-.018 17.295.003 25.405Zm-1.228-32.562-24.49-14.14c-.98-.566-2.273-.849-3.565-.849-1.292 0-2.584.283-3.564.85L5.375 16.352c-1.96 1.132-3.565 3.91-3.565 6.173v28.28c0 2.263 1.604 5.041 3.565 6.173l24.49 14.14c.236.136.492.255.76.359 2.098.687 4.822.522 6.612-.5l24.247-13.999a4.61 4.61 0 0 0 .203-.124c1.46-1.038 2.68-2.877 3.193-4.706.109-.457.168-.91.168-1.343v-28.28c0-2.263-1.604-5.041-3.564-6.173Z" fill="#fff"/>
  <path d="M65.048 50.805c0 .434-.06.887-.168 1.343-.44 1.843-1.697 3.745-3.193 4.707a4.61 4.61 0 0 1-.203.124L37.237 70.978l-.243.14c-.98.566-2.273.85-3.565.85-.98 0-1.96-.164-2.804-.49a5.495 5.495 0 0 1-.76-.36L5.375 56.98c-1.96-1.132-3.565-3.91-3.565-6.174v-28.28c0-2.263 1.604-5.041 3.565-6.173l24.49-14.14c.98-.566 2.272-.849 3.564-.849 1.292 0 2.584.283 3.565.85l24.49 14.139c1.96 1.132 3.564 3.91 3.564 6.173v28.28Zm-3.056-35.332-24.49-14.14c-1.1-.635-2.547-.985-4.073-.985-1.526 0-2.972.35-4.072.985l-24.49 14.14C2.582 16.79.793 19.89.793 22.526v28.28c0 2.636 1.789 5.735 4.072 7.053L29.356 72c1.1.635 2.547.985 4.073.985 1.526 0 2.972-.35 4.073-.985l24.49-14.14c2.284-1.318 4.073-4.417 4.073-7.054v-28.28c0-2.636-1.79-5.735-4.073-7.053Z" fill="#158CA0"/>
  <path d="M59.147 17.458 37.251 4.816c-1.96-1.132-5.168-1.132-7.129 0L8.226 17.458c-1.932 1.118-3.463 3.79-3.678 6.092-.053 3.681.003 7.926-.017 11.616-.024 3.383.018 10.627 0 14.053 0 2.264 1.604 5.042 3.565 6.174 5.478 3.161 11.247 6.494 16.724 9.656 7.922 4.701 8.621 5.476 16.769.406 3.375-1.95 7.142-4.123 10.518-6.072 1.994-1.158 4.916-2.834 6.91-3.99 2.054-1.213 3.63-4.054 3.695-6.478-.021-8.11.018-17.332-.003-25.405-.056-2.241-1.636-4.94-3.562-6.052" fill="#158CA0"/>
  <path d="M19.094 23.852c-.49-4.017-3.25-4.795-6.688-3.083 2.16.722 3.502 1.445 5.21 2.764.493.11.986.216 1.478.319Zm-4.832 1.628c.134-1.045 1.014-1.541 2.293-1.74-3.18-1.176-8.274-2.228-11.04.302a4.99 4.99 0 0 0-.016.371v1.058c2.73-.884 6.034-1.155 8.763.009m-.813.655c-3.014.059-5.717.2-7.95.88v2.639c2.359-1.326 4.838-2.347 7.086-2.82l.864-.699Zm.905 7.976c-2.197 1.262-3.306 2.567-4.26 4.406.505-3.711 1.202-4.34 4.069-6.973-.405-.288-.824-.632-.933-1.292-.734.06-1.838.469-2.59.922 1.01-.786 2.02-1.576 3.03-2.377v-1.66c-3.026.841-5.832 1.627-8.17 3.345v3.439c1.249-1.613 2.957-2.992 5.077-4.116-2.451 1.93-4.026 3.715-5.078 5.435v5.784c.637-.969 1.463-1.876 2.508-2.706-1.885 3.98-2.987 11.787 1.09 16.513l1.684.973c-2.506-6.482-.457-17.901 3.573-21.693" fill="#fff"/>
  <path d="M15.397 35.225C9.605 44.742 12.461 51.05 13.65 57.46l2.106 1.216c1.732-7.18-4.326-11.824-.359-23.45" fill="#fff"/>
  <path d="M19.971 44.661c-1.229-.624-2.065-1.97-3.016-3.866-3.136 3.964 2.537 10.479 1.065 19.188l1.566.905c3.188-6.025-1.641-11.538.385-16.227m3.794 3.644c1.08-.187 2.073-.523 2.708-1.347-2.427.133-3.997-.065-5.194-1.718-1.496 4.998 3.483 9.663.458 16.89l.892.514c2.202-2.57 3.014-5.025 1.789-10.928 2.805 3.782 2.756 8.536.64 12.33l.786.454c4.422-3.786 3.283-8.743 1.643-12.526 1.128.176 3.14.023 3.705-1.455-1.882.407-5.26-.541-7.427-2.214m-4.293-23.87.708.843c0 .012 2.21-1.433 1.503-3.482-.705-2.025-3.79-3.39-4.943-3.374 0 .016 3.706 3.401 2.732 6.013Z" fill="#fff"/>
  <path d="M21.252 25.372c.519.127 1.037.251 1.555.373 0 0 1.288.12 1.565-2.122.28-2.253-3.452-6.624-4.477-5.67.002-.008 4.126 4.563 1.357 7.419Zm7.294 6.603-.01.017a12.08 12.08 0 0 0-.379-.28s-.171.577-.893 1.213a24.296 24.296 0 0 1-1.584 1.26c.757-1.239-.29-1.468-1.276-2.09.224.028.818-.31.67-.487 0 0 .668.716.95.809.28.093.796.182.948.05.152-.133.199-.425.292-.732.094-.307.117-.577.117-.577s-1.105-.534-1.564-1.126c-.477-.614-.532-.811-.532-.812 0 0 .262.248.81.496.55.247.802.346.802.346s-.524-1.682-1.894-2.77c-1.37-1.094-2.983-1.383-5.288-1.33.786.728 3.073 2.816 2.242 3.833-.776.944-1.5 1.433-.829 1.697.672.264 2.416.488 2.415.486-.73 1.252-2.866.73-4.031-.076a2.204 2.204 0 0 1-.26-.197 2.374 2.374 0 0 1-.245-.237 8.302 8.302 0 0 1-.438-.507c-.09-.112-.179-.223-.263-.332-1.025-1.32-1.172-2.37-1.19-2.725l-.002-.13c0-.514.062-1.646.838-1.67.827-.03.849.512 1.036 1.146l.796.538c-.24-1.328-.973-2.959-2.524-2.907-.674.022-1.42.286-1.86 1.078-.733 1.318-.913 2.715-.269 4.25.903 2.152 2.114 2.856 2.114 2.855-.185 2.08-.209 5.038-.96 6.973 1.177-1.05 1.518-1.517 1.762-2.533.283-1.18.495-2.646 2.352-2.702.871-.027 1.508.366 2.163.896.87.704 1.761 1.091 2.85.519a3.063 3.063 0 0 1-.23.33c-.316.314-.794.692-1.24.673-.753-.035-2.692-1.185-3.394-1.169a1.104 1.104 0 0 0-.147.014c-2.35.166-3.092 5.274 1.642 8.135.617.372 3.473.328 3.807.336.846.016 1.178-.155 1.5-.406.322-.251.643-.737.643-.738.053.437.215 1.386-.034 1.756.85-.313.974-.675 1.093-1.397.325.281.346.994.13 1.48 1.345-.718 1.69-1.998 1.739-3.458 0 0 .03-.274.032-.435-1.058.037-2.12.072-3.185.107 0 0 .098-.032 0 0-.066.018-.638-1.612-.638-1.817 0-.105 1.402-1.939 1.202.65-.035.449 1.718.16 2.966-.01 0 0 .434-.699.347-1.303.002-.002-1.967-.341-1.706-2.292.698 1.67 1.72 1.889 1.719 1.887.53.077 1.378-1.446 1.554-1.783l.003-.001s.012-.017.025-.054a.182.182 0 0 0 .005-.009l-.002.002c.083-.257.145-1.654-4.698-4.74m19.5-8.123c.493-.103.986-.209 1.478-.319 1.709-1.32 3.05-2.042 5.21-2.764-3.438-1.712-6.198-.934-6.688 3.083Zm13.537.151c-2.776-2.48-7.834-1.434-10.997-.263 1.279.199 2.158.695 2.292 1.74 2.71-1.156 5.989-.897 8.707-.027V24.12l-.002-.118Zm-7.028 2.831c2.23.47 4.688 1.478 7.03 2.788V27c-2.222-.666-4.904-.806-7.893-.864.287.234.575.466.863.698Zm-1.085 1.963c1.01.8 2.02 1.59 3.03 2.377-.752-.453-1.856-.862-2.59-.922-.11.66-.528 1.004-.932 1.292 2.866 2.634 3.563 3.262 4.069 6.973-.954-1.84-2.063-3.144-4.26-4.406 4 3.766 6.05 15.054 3.624 21.558l1.613-.93c.068-.04.135-.082.201-.125 3.861-4.745 2.765-12.377.908-16.296a11.613 11.613 0 0 1 2.452 2.623v-5.79c-1.052-1.693-2.613-3.45-5.022-5.346 2.089 1.107 3.778 2.463 5.022 4.045v-3.408c-2.327-1.69-5.113-2.47-8.115-3.306v1.66" fill="#fff"/>
  <path d="m51.361 58.584 2.15-1.241c1.201-6.37 3.988-12.66-1.77-22.118 3.951 11.577-2.038 16.231-.38 23.36" fill="#fff"/>
  <path d="M50.184 40.795c-.951 1.897-1.787 3.242-3.016 3.866 2.017 4.669-2.761 10.154.342 16.147l1.594-.92c-1.415-8.662 4.205-15.143 1.08-19.093M45.86 45.24c-1.197 1.653-2.767 1.85-5.194 1.718.636.824 1.628 1.16 2.709 1.347-2.167 1.673-5.545 2.62-7.428 2.214.566 1.478 2.578 1.63 3.705 1.455-1.631 3.762-2.767 8.686 1.57 12.464l.815-.47c-2.074-3.782-2.101-8.496.685-12.252-1.215 5.85-.428 8.313 1.728 10.858l.916-.529c-2.95-7.179 1.985-11.826.494-16.805m-.404-23.444c-.707 2.05 1.502 3.494 1.503 3.482l.708-.843c-.974-2.612 2.731-5.997 2.733-6.013-1.154-.016-4.239 1.349-4.944 3.374" fill="#fff"/>
  <path d="M44.332 25.745a184.36 184.36 0 0 0 1.556-.373c-2.77-2.856 1.354-7.427 1.356-7.42-1.025-.953-4.756 3.418-4.477 5.671.277 2.241 1.565 2.122 1.565 2.122m-5.524 14.534c-.201-2.59 1.2-.756 1.202-.651 0 .205-.572 1.835-.639 1.817-.098-.032 0 0 0 0-1.065-.035-2.127-.07-3.184-.107.002.161.031.435.031.435.05 1.46.394 2.74 1.739 3.459-.215-.487-.194-1.2.13-1.481.119.722.243 1.084 1.094 1.397-.25-.37-.088-1.32-.035-1.756 0 0 .321.487.643.738.323.251.654.422 1.5.406.334-.008 3.19.036 3.808-.336 4.733-2.861 3.99-7.97 1.642-8.136a1.136 1.136 0 0 0-.148-.013c-.701-.016-2.64 1.134-3.393 1.169-.447.02-.925-.359-1.24-.673a3.02 3.02 0 0 1-.23-.33c1.088.572 1.978.185 2.85-.519.654-.53 1.291-.923 2.162-.896 1.857.056 2.07 1.522 2.352 2.702.244 1.016.586 1.483 1.763 2.533-.752-1.934-.776-4.893-.96-6.973 0 0 1.21-.703 2.113-2.855.644-1.535.465-2.932-.268-4.25-.44-.792-1.187-1.056-1.86-1.078-1.551-.052-2.285 1.58-2.525 2.907l.796-.538c.187-.634.21-1.175 1.036-1.147.777.025.838 1.157.838 1.67l-.001.131c-.019.355-.165 1.404-1.191 2.725-.084.109-.173.22-.263.332a8.208 8.208 0 0 1-.438.507c-.07.08-.154.16-.246.237a2.202 2.202 0 0 1-.259.198c-1.164.805-3.301 1.327-4.031.075 0 .002 1.744-.222 2.415-.486s-.053-.753-.83-1.697c-.83-1.017 1.457-3.105 2.244-3.834-2.305-.052-3.918.237-5.289 1.33-1.37 1.089-1.893 2.77-1.894 2.771 0 0 .253-.099.802-.346.548-.248.81-.496.81-.496s-.055.198-.531.812c-.46.592-1.565 1.126-1.565 1.126s.023.27.117.577c.093.307.14.6.292.731.152.133.667.044.948-.05.282-.092.95-.809.95-.808-.148.177.446.515.67.488-.986.621-2.032.85-1.276 2.09 0 0-.862-.624-1.584-1.261-.722-.636-.893-1.213-.893-1.212-.124.087-.25.18-.378.279l-.01-.017c-4.843 3.086-4.78 4.483-4.697 4.74l-.003-.002.005.01a.196.196 0 0 0 .026.053h.003c.175.338 1.023 1.86 1.554 1.784 0 .002 1.02-.216 1.718-1.887.261 1.95-1.708 2.29-1.706 2.292-.087.604.347 1.303.347 1.302 1.248.17 3.001.46 2.967.011m37.568-21.59h3.197L83.73 30.89h.043l4.176-12.203h3.088v15.009h-2.153V20.732h-.043l-4.395 12.965H82.62l-4.395-12.965h-.043v12.965h-1.805v-15.01Zm23.49 7.657c0-.805-.283-2.328-1.915-2.328-1.696 0-2.023 1.74-2.066 2.328h3.981Zm1.957 7.004c-.913.37-1.719.587-3.024.587-2.871 0-5.177-1.697-5.177-5.873 0-2.871 1.154-4.96 4.416-4.96 3.35 0 3.981 2.241 3.981 4.242h-6.2c0 2.045.914 5.439 4.024 5.439a4.58 4.58 0 0 0 1.98-.436v1Zm6.372-.805c1.806 0 2.067-2.305 2.067-4.024 0-1.805-.174-4.155-2.067-4.155-1.718 0-2.088 2.35-2.088 4.155 0 1.718.326 4.024 2.088 4.024Zm2.154-.544h-.044c-.304.697-1.022 1.936-2.697 1.936-2.98 0-3.894-2.436-3.894-5.416 0-3.11 1.154-5.417 3.894-5.417 1.762 0 2.393 1.11 2.697 1.676h.044v-6.091h2.196v15.009h-2.196V32Zm5.502-8.657h2.196v10.354h-2.196V23.343Zm-.088-4.655h2.371v2.175h-2.371v-2.175Zm12.834 14.726c-.892.327-1.828.522-2.763.522-3.284 0-5.199-1.979-5.199-5.83 0-3.088 1.414-5.003 4.394-5.003 2.784 0 3.72 1.48 3.72 3.611h-2.307c0-1.24-.129-2.697-1.5-2.697-1.261 0-1.914 1.48-1.914 3.35 0 2.523 1.066 5.417 3.72 5.417.631 0 1.239-.153 1.849-.392v1.022m8.33-2.175h-.044c-.349.761-1.327 2.697-3.611 2.697-1.827 0-2.61-1.522-2.61-3.023v-7.57h2.197v6.482c0 1.305.196 2.48 1.305 2.48 2.175 0 2.785-3.393 2.785-4.677v-4.285h2.197v10.354h-2.219v-2.458m10.639-5.851c-.739-.501-1.566-1.023-2.61-1.023-.697 0-1.479.305-1.479 1.088 0 1.87 4.742 2.045 4.742 5.35 0 2.22-1.741 3.133-3.937 3.133a8.337 8.337 0 0 1-2.763-.456v-2.024c.632.436 1.654 1.088 2.872 1.088 1.26 0 1.783-.652 1.783-1.305 0-1.827-4.676-2.197-4.676-5.155 0-1.567 1.044-2.98 3.632-2.98 1.11 0 2.067.304 2.436.413v1.87M83.495 41.202c-.718-.326-1.958-.848-3.307-.848-1.784 0-2.893 1.022-2.893 2.437 0 2.219 1.87 2.458 4.59 4.09 1.457.89 2.48 1.674 2.48 3.784 0 3.024-2.458 4.176-4.98 4.176-1.589 0-2.98-.26-3.33-.348V52.95c.545.261 1.937.849 3.416.849 1.85 0 3.414-.892 3.414-2.98 0-1.893-1.544-2.546-3.044-3.329-2.023-1.087-3.872-1.892-3.872-4.415 0-2.24 1.696-3.72 4.546-3.72 1.305 0 2.327.196 2.98.348v1.5m10.7-.61h-3.547v-1h8.44v1h-3.545v14.01h-1.348v-14.01m13.162 8.027h4.938l-2.436-7.635h-.045l-2.457 7.635Zm1.826-9.027h1.545l4.874 15.01h-1.35l-1.632-4.982h-5.59l-1.63 4.981h-1.089l4.872-15.009ZM132.37 49.62c0 2.611-1.132 5.221-4.72 5.221-3.59 0-4.591-2.61-4.591-5.22V39.593h1.349v9.615c0 1.327 0 4.633 3.329 4.633 3.284 0 3.284-3.306 3.284-4.633v-9.615h1.349v10.028Zm9.133-10.027h6.503v1h-5.154v5.656h4.894v1.001h-4.894v7.352h-1.349V39.593m13.897 0h6.656v1h-5.307v5.656h5.046v1.001h-5.046v6.308h5.503v1.044H155.4V39.593m15.115 0h1.675l6.526 13.465h.043V39.593H180v15.01h-1.785l-6.417-13.357h-.043v13.356h-1.24V39.593Z" fill="#fff"/>
</svg>
