      <svg
        width="125"
        height="140"
        viewBox="0 0 125 140"
      >
        <path
          d="M117.335 29.0738L70.3006 1.83C66.0894 -0.609979 59.1986 -0.609979 54.9874 1.83L7.95279 29.0738C3.80262 31.4842 0.51551 37.2433 0.0517124 42.2038C-0.0603909 50.1364 0.0587324 59.2843 0.0166602 67.2377C-0.0353113 74.5275 0.0543178 90.1384 0.0166602 97.5221C0.0166602 102.401 3.4619 108.388 7.67319 110.827C19.4415 117.641 31.8323 124.823 43.5978 131.636C60.616 141.769 62.1169 143.438 79.6187 132.512C86.8686 128.312 94.96 123.627 102.212 119.425C106.496 116.93 112.773 113.318 117.056 110.827C121.467 108.213 124.853 102.09 124.992 96.8678C124.947 79.3893 125.031 59.5152 124.986 42.1165C124.867 37.2876 121.471 31.4701 117.335 29.0738Z"
          fill="#fff"
        />
      </svg>