<?xml version="1.0" standalone="no"?>
<!DOCTYPE svg PUBLIC "-//W3C//DTD SVG 20010904//EN"
 "http://www.w3.org/TR/2001/REC-SVG-20010904/DTD/svg10.dtd">
<svg version="1.0" xmlns="http://www.w3.org/2000/svg"
 width="584.000000pt" height="584.000000pt" viewBox="0 0 584.000000 584.000000"
 preserveAspectRatio="xMidYMid meet">
<metadata>
Created by potrace 1.14, written by Peter Selinger 2001-2017
</metadata>
<g transform="translate(0.000000,584.000000) scale(0.100000,-0.100000)"
fill="#000000" stroke="none">
<path d="M2870 5809 c-94 -8 -128 -14 -180 -32 -37 -12 -182 -85 -190 -96 -3
-3 -21 -14 -40 -24 -59 -32 -95 -52 -100 -57 -3 -3 -18 -12 -35 -20 -16 -8
-65 -36 -108 -62 -43 -27 -80 -48 -82 -48 -2 0 -28 -14 -57 -31 -49 -29 -113
-66 -163 -93 -11 -6 -22 -14 -25 -17 -3 -3 -18 -12 -35 -21 -30 -15 -197 -110
-225 -128 -8 -5 -53 -31 -100 -58 -47 -27 -114 -66 -150 -87 -90 -52 -125 -72
-163 -93 -35 -20 -207 -121 -235 -137 -9 -6 -48 -28 -87 -50 -38 -21 -72 -41
-75 -44 -3 -3 -25 -17 -50 -30 -102 -54 -198 -114 -232 -147 -49 -46 -108
-118 -108 -133 0 -6 -4 -11 -9 -11 -15 0 -81 -149 -100 -223 -16 -64 -17 -167
-16 -1281 1 -832 4 -1219 12 -1236 6 -14 16 -43 23 -65 44 -144 164 -298 296
-378 34 -20 67 -37 73 -37 6 0 11 -4 11 -9 0 -5 10 -13 22 -17 13 -3 30 -12
38 -19 8 -7 38 -25 65 -39 28 -15 57 -31 65 -37 14 -9 324 -188 400 -231 69
-39 145 -83 165 -95 11 -7 27 -16 35 -20 8 -4 71 -40 139 -80 67 -40 127 -73
132 -73 5 0 9 -5 9 -12 0 -6 3 -8 7 -5 3 4 13 1 22 -7 9 -7 41 -27 71 -43 85
-46 493 -284 508 -295 6 -6 12 -7 12 -2 0 5 4 4 8 -2 9 -14 211 -128 243 -138
123 -37 160 -43 265 -41 60 2 119 5 131 8 66 16 141 43 165 59 14 10 31 18 36
18 6 0 17 6 24 13 18 16 66 44 101 58 15 6 27 15 27 20 0 5 5 9 12 9 6 0 54
25 105 55 52 30 98 55 103 55 4 0 10 3 12 8 4 9 147 92 159 92 5 0 9 4 9 10 0
5 3 9 8 8 4 -1 18 5 32 14 21 13 280 163 390 225 19 11 102 59 183 107 82 47
151 86 153 86 3 0 30 16 60 35 30 19 58 35 63 35 5 0 11 3 13 8 2 4 28 20 58
36 30 16 57 32 60 35 3 4 24 15 47 26 24 11 43 23 43 28 0 4 4 7 9 7 10 0 230
125 296 169 56 36 175 159 175 179 0 5 8 17 18 28 24 26 66 125 89 209 18 67
19 120 17 1255 0 652 -4 1204 -8 1227 -3 23 -10 53 -16 67 -5 15 -7 26 -4 26
3 0 -3 15 -12 33 -9 17 -22 41 -27 52 -6 11 -19 38 -30 59 -11 22 -24 45 -31
52 -6 6 -22 26 -36 44 -25 33 -38 45 -95 95 -34 29 -211 135 -226 135 -5 0 -9
3 -9 8 0 4 -12 13 -27 19 -16 7 -44 23 -63 35 -19 12 -37 22 -40 23 -5 0 -152
86 -278 161 -40 24 -77 44 -82 44 -6 0 -10 5 -10 10 0 6 -5 10 -11 10 -6 0
-65 32 -132 71 -67 40 -142 83 -167 97 -25 14 -82 47 -128 73 -45 27 -85 49
-89 49 -4 0 -14 6 -22 14 -9 7 -38 26 -66 41 -98 55 -182 103 -303 173 -68 40
-128 72 -133 72 -5 0 -9 4 -9 9 0 5 -8 11 -17 14 -10 4 -45 22 -78 42 -33 19
-75 43 -92 52 -18 9 -33 20 -33 25 0 4 -7 8 -16 8 -9 0 -28 6 -42 14 -31 17
-63 29 -77 31 -5 1 -26 5 -45 9 -19 5 -50 10 -68 12 -18 2 -36 5 -40 6 -4 2
-45 1 -92 -3z m125 -5719 c-3 -5 -12 -10 -18 -10 -7 0 -6 4 3 10 19 12 23 12
15 0z"/>
</g>
</svg>
